<?xml version="1.0" encoding="UTF-8"?>
<svg width="16px" height="16px" viewBox="0 0 16 16" version="1.1" xmlns="http://www.w3.org/2000/svg">
    <g stroke="none" stroke-width="1" fill="none" fill-rule="evenodd">
        <path d="M4,4 L4,1 C4,0.44771525 4.44771525,0 5,0 L13,0 C13.5522847,0 14,0.44771525 14,1 L14,11 C14,11.5522847 13.5522847,12 13,12 L11,12 L11,15 C11,15.5522847 10.5522847,16 10,16 L2,16 C1.44771525,16 1,15.5522847 1,15 L1,5 C1,4.44771525 1.44771525,4 2,4 L4,4 Z M4,6 L3,6 L3,14 L9,14 L9,12 L5,12 C4.44771525,12 4,11.5522847 4,11 L4,6 Z M6,2 L6,10 L12,10 L12,2 L6,2 Z" fill="#333333" fill-rule="nonzero"></path>
    </g>
</svg>
